<svg xmlns="http://www.w3.org/2000/svg" xmlns:xlink="http://www.w3.org/1999/xlink" width="512" height="512" viewBox="0 0 512 512">
  <defs>
    <clipPath id="clip-path">
      <rect width="434.228" height="48.959" transform="translate(0 0.001)" fill="none"/>
    </clipPath>
    <clipPath id="clip-Favicon_svg">
      <rect width="512" height="512"/>
    </clipPath>
  </defs>
  <g clip-path="url(#clip-Favicon_svg)">
    <rect width="512" height="512" rx="15" fill="#144835"/>
    <g transform="translate(38.886 231.52)">
      <g clip-path="url(#clip-path)">
        <path d="M45.432,28.007a10.647,10.647,0,0,1,1.728,6.048v.792a11.463,11.463,0,0,1-4.752,9.684Q37.656,48.1,29.52,48.1H0V.863H28.152q8.352,0,12.924,3.276a10.649,10.649,0,0,1,4.572,9.18v.792A11.054,11.054,0,0,1,40.392,23.9a11.711,11.711,0,0,1,5.04,4.1M10.8,10.3v9.5H28.08q6.7,0,6.7-4.393v-.72a3.677,3.677,0,0,0-1.692-3.275A8.985,8.985,0,0,0,28.152,10.3ZM36.144,33.263q0-4.464-6.768-4.464H10.8v9.864H29.376a8.7,8.7,0,0,0,5-1.224,3.963,3.963,0,0,0,1.764-3.456Z" fill="#fff"/>
        <path d="M98.495.863v9.505H67.319v9.359H97.055v9.432H67.319v9.432H98.495v9.5H56.519V.863Z" fill="#fff"/>
        <path d="M157.606,46.439V48.1h-10.8l-4.32-9.792H118.87L114.55,48.1h-10.8V46.439L124.7.863h11.952Zm-19.224-17.5-7.7-17.567-7.7,17.567Z" fill="#fff"/>
        <path d="M211.749.863V48.1H201.381l-27-32.04V48.1H164.013V.863h10.368l27,31.968V.863Z" fill="#fff"/>
        <path d="M252.933.864q8.351,0,13.175,4.032a13.6,13.6,0,0,1,4.825,11.016V16.7q0,7.056-4.825,11.088t-13.175,4.031H233.78V48.1h-10.8V.864Zm5.111,19.98a4.851,4.851,0,0,0,1.872-4.14v-.792a4.775,4.775,0,0,0-1.872-4.068,8.878,8.878,0,0,0-5.4-1.4H233.78V22.248h18.865a8.885,8.885,0,0,0,5.4-1.4" fill="#fff"/>
        <path d="M290.8,46.007a22.7,22.7,0,0,1-9.828-8.424,23.16,23.16,0,0,1-3.492-12.743v-.649a23.17,23.17,0,0,1,3.492-12.744,22.93,22.93,0,0,1,9.863-8.46,38.231,38.231,0,0,1,29.629,0,22.745,22.745,0,0,1,9.792,8.46,23.36,23.36,0,0,1,3.456,12.744v.649a23.349,23.349,0,0,1-3.456,12.743,22.489,22.489,0,0,1-9.792,8.424,38.737,38.737,0,0,1-29.664,0m27.54-10.656q4.355-3.6,4.355-10.368V24.12q0-6.768-4.427-10.44t-12.636-3.672q-8.281,0-12.708,3.672T288.5,24.12v.863q0,6.77,4.429,10.368t12.708,3.6q8.351,0,12.708-3.6" fill="#fff"/>
        <path d="M353.588.863V38.375h32.04V48.1h-42.84V.863Z" fill="#fff"/>
        <path d="M434.228.863v9.505H403.051v9.359h29.737v9.432H403.051v9.432h31.176v9.5H392.251V.863Z" fill="#fff"/>
      </g>
    </g>
  </g>
</svg>
